<svg xmlns="http://www.w3.org/2000/svg" viewBox="0 0 100 100"><defs><style>.cls-1{fill:none;stroke:#fff;stroke-linecap:round;stroke-miterlimit:10;stroke-width:2.5px;}</style></defs><title>icon</title><g id="Ebene_3" data-name="Ebene 3"><path class="cls-1" d="M10,34.12l7.37,3.69a13.39,13.39,0,0,0,11.93,0l6.17-3.09a2.65,2.65,0,0,1,2.39,0L44,37.81a13.36,13.36,0,0,0,11.92,0l6.18-3.09a2.65,2.65,0,0,1,2.39,0l6.17,3.09a13.39,13.39,0,0,0,11.93,0L90,34.12"/><path class="cls-1" d="M10,47.45l7.37,3.69a13.32,13.32,0,0,0,11.93,0l6.17-3.09a2.65,2.65,0,0,1,2.39,0L44,51.14a13.3,13.3,0,0,0,11.92,0l6.18-3.09a2.65,2.65,0,0,1,2.39,0l6.17,3.09a13.32,13.32,0,0,0,11.93,0L90,47.45"/><path class="cls-1" d="M10,60.79l7.37,3.68a13.32,13.32,0,0,0,11.93,0l6.17-3.09a2.71,2.71,0,0,1,2.39,0L44,64.47a13.3,13.3,0,0,0,11.92,0l6.18-3.09a2.71,2.71,0,0,1,2.39,0l6.17,3.09a13.32,13.32,0,0,0,11.93,0L90,60.79"/></g></svg>