<svg xmlns="http://www.w3.org/2000/svg" viewBox="0 0 100 100"><defs><style>.cls-1{fill:#ff9932;}.cls-2{fill:#fff;}</style></defs><title>icons</title><g id="Ebene_3" data-name="Ebene 3"><circle class="cls-1" cx="50" cy="50" r="50"/><path class="cls-2" d="M61.94,48.41A11.44,11.44,0,0,1,66.2,57.8a12.48,12.48,0,0,1-7.44,11.7,21,21,0,0,1-9.18,1.8A29.46,29.46,0,0,1,40.88,70a21.4,21.4,0,0,1-7.08-3.57l3.3-6.06a17.73,17.73,0,0,0,5.61,3,20.86,20.86,0,0,0,6.75,1.11A10.94,10.94,0,0,0,56,62.81a5.92,5.92,0,0,0-.18-9.6q-2.55-1.65-8.73-1.65H36.92L39.08,28.7H63.74v6.54H45.68L44.78,45h4Q57.68,45,61.94,48.41Z"/></g></svg>