<svg xmlns="http://www.w3.org/2000/svg" viewBox="0 0 100 100"><defs><style>.cls-1,.cls-2{fill:none;stroke:#fff;stroke-miterlimit:10;stroke-width:2.5px;}.cls-2{stroke-linecap:round;}</style></defs><title>icon</title><g id="Ebene_2" data-name="Ebene 2"><circle class="cls-1" cx="50" cy="50" r="22.5"/><line class="cls-2" x1="80" y1="50" x2="90" y2="50"/><line class="cls-2" x1="10" y1="50" x2="20" y2="50"/><line class="cls-2" x1="50" y1="20" x2="50" y2="10"/><line class="cls-2" x1="50" y1="90" x2="50" y2="80"/><line class="cls-2" x1="71.51" y1="29.08" x2="78.68" y2="22.11"/><line class="cls-2" x1="21.32" y1="77.89" x2="28.49" y2="70.92"/><line class="cls-2" x1="29.08" y1="28.49" x2="22.11" y2="21.32"/><line class="cls-2" x1="77.89" y1="78.68" x2="70.92" y2="71.51"/><path class="cls-2" d="M44.51,32.85A18,18,0,0,0,34,41.66"/></g><g id="Ebene_3" data-name="Ebene 3"><line class="cls-2" x1="39.09" y1="22.05" x2="37.27" y2="17.4"/><line class="cls-2" x1="62.73" y1="82.6" x2="60.91" y2="77.95"/><line class="cls-2" x1="37.57" y1="77.3" x2="35.5" y2="81.86"/><line class="cls-2" x1="64.5" y1="18.14" x2="62.43" y2="22.7"/><line class="cls-2" x1="22.05" y1="60.91" x2="17.4" y2="62.73"/><line class="cls-2" x1="82.6" y1="37.27" x2="77.95" y2="39.09"/><line class="cls-2" x1="22.7" y1="37.57" x2="18.14" y2="35.5"/><line class="cls-2" x1="81.86" y1="64.5" x2="77.3" y2="62.43"/></g></svg>