<svg xmlns="http://www.w3.org/2000/svg" viewBox="0 0 100 100"><defs><style>.cls-1{fill:#fff;}</style></defs><title>icon</title><g id="Ebene_2" data-name="Ebene 2"><path class="cls-1" d="M55.38,36.23,50.32,39.9A.39.39,0,0,1,50,40l.07,0H50a.39.39,0,0,1-.32-.09l-5.06-3.67c-1.07-.78-1.45-2.18-.77-2.83h0c.67-.63,2-.2,2.75.89L49.12,38l-1.25-5.25A2.27,2.27,0,0,1,50.07,30h0a2.26,2.26,0,0,1,2.18,2.85l-1.4,5.22,2.55-3.78c.73-1.09,2.08-1.52,2.75-.89h0C56.83,34.05,56.45,35.45,55.38,36.23Z"/><path class="cls-1" d="M75.23,36.23,70.17,39.9a.39.39,0,0,1-.32.09l.08,0h-.08a.39.39,0,0,1-.32-.09l-5-3.67c-1.08-.78-1.46-2.18-.78-2.83h0c.67-.63,2-.2,2.75.89L69,38l-1.25-5.25A2.27,2.27,0,0,1,69.92,30h0a2.26,2.26,0,0,1,2.18,2.85l-1.39,5.22,2.54-3.78C74,33.2,75.33,32.77,76,33.4h0C76.68,34.05,76.3,35.45,75.23,36.23Z"/><path class="cls-1" d="M35.23,36.23,30.17,39.9a.39.39,0,0,1-.32.09l.08,0h-.08a.39.39,0,0,1-.32-.09l-5.05-3.67c-1.08-.78-1.46-2.18-.78-2.83h0c.67-.63,2-.2,2.75.89L29,38l-1.25-5.25A2.27,2.27,0,0,1,29.92,30h0a2.26,2.26,0,0,1,2.18,2.85l-1.39,5.22,2.54-3.78C34,33.2,35.33,32.77,36,33.4h0C36.68,34.05,36.3,35.45,35.23,36.23Z"/><path class="cls-1" d="M55.38,76.23,50.32,79.9A.39.39,0,0,1,50,80l.07,0H50a.39.39,0,0,1-.32-.09l-5.06-3.67c-1.07-.78-1.45-2.18-.77-2.83h0c.67-.63,2-.2,2.75.89L49.12,78l-1.25-5.25A2.27,2.27,0,0,1,50.07,70h0a2.26,2.26,0,0,1,2.18,2.85l-1.4,5.22,2.55-3.78c.73-1.09,2.08-1.52,2.75-.89h0C56.83,74.05,56.45,75.45,55.38,76.23Z"/><path class="cls-1" d="M75.23,76.23,70.17,79.9a.39.39,0,0,1-.32.09l.08,0h-.08a.39.39,0,0,1-.32-.09l-5-3.67c-1.08-.78-1.46-2.18-.78-2.83h0c.67-.63,2-.2,2.75.89L69,78l-1.25-5.25A2.27,2.27,0,0,1,69.92,70h0a2.26,2.26,0,0,1,2.18,2.85l-1.39,5.22,2.54-3.78C74,73.2,75.33,72.77,76,73.4h0C76.68,74.05,76.3,75.45,75.23,76.23Z"/><path class="cls-1" d="M35.23,76.23,30.17,79.9a.39.39,0,0,1-.32.09l.08,0h-.08a.39.39,0,0,1-.32-.09l-5.05-3.67c-1.08-.78-1.46-2.18-.78-2.83h0c.67-.63,2-.2,2.75.89L29,78l-1.25-5.25A2.27,2.27,0,0,1,29.92,70h0a2.26,2.26,0,0,1,2.18,2.85l-1.39,5.22,2.54-3.78C34,73.2,35.33,72.77,36,73.4h0C36.68,74.05,36.3,75.45,35.23,76.23Z"/><path class="cls-1" d="M45.38,56.23,40.32,59.9A.39.39,0,0,1,40,60l.07,0H40a.39.39,0,0,1-.32-.09l-5.06-3.67c-1.07-.78-1.45-2.18-.77-2.83h0c.67-.63,2-.2,2.75.89L39.12,58l-1.25-5.25A2.27,2.27,0,0,1,40.07,50h0a2.26,2.26,0,0,1,2.18,2.85l-1.4,5.22,2.55-3.78c.73-1.09,2.08-1.52,2.75-.89h0C46.83,54.05,46.45,55.45,45.38,56.23Z"/><path class="cls-1" d="M65.23,56.23,60.17,59.9a.39.39,0,0,1-.32.09l.08,0h-.08a.39.39,0,0,1-.32-.09l-5.05-3.67c-1.08-.78-1.46-2.18-.78-2.83h0c.67-.63,2-.2,2.75.89L59,58l-1.25-5.25A2.27,2.27,0,0,1,59.92,50h0a2.26,2.26,0,0,1,2.18,2.85l-1.39,5.22,2.54-3.78C64,53.2,65.33,52.77,66,53.4h0C66.68,54.05,66.3,55.45,65.23,56.23Z"/><path class="cls-1" d="M85.23,56.23,80.17,59.9a.39.39,0,0,1-.32.09l.08,0h-.08a.39.39,0,0,1-.32-.09l-5-3.67c-1.08-.78-1.46-2.18-.78-2.83h0c.67-.63,2-.2,2.75.89L79,58l-1.25-5.25A2.27,2.27,0,0,1,79.92,50h0a2.26,2.26,0,0,1,2.18,2.85l-1.39,5.22,2.54-3.78C84,53.2,85.33,52.77,86,53.4h0C86.68,54.05,86.3,55.45,85.23,56.23Z"/><path class="cls-1" d="M25.23,56.23,20.17,59.9a.39.39,0,0,1-.32.09l.08,0h-.08a.39.39,0,0,1-.32-.09l-5.05-3.67c-1.08-.78-1.46-2.18-.78-2.83h0c.67-.63,2-.2,2.75.89L19,58l-1.25-5.25A2.27,2.27,0,0,1,19.92,50h0a2.26,2.26,0,0,1,2.18,2.85l-1.39,5.22,2.54-3.78C24,53.2,25.33,52.77,26,53.4h0C26.68,54.05,26.3,55.45,25.23,56.23Z"/></g></svg>