<svg xmlns="http://www.w3.org/2000/svg" viewBox="0 0 100 100"><defs><style>.cls-1,.cls-2{fill:none;stroke:#fff;stroke-miterlimit:10;stroke-width:2.5px;}.cls-2{stroke-linecap:round;}</style></defs><title>icon</title><g id="Ebene_3" data-name="Ebene 3"><path class="cls-1" d="M43.23,29.88h0"/><path class="cls-1" d="M49.28,29.63h1.61"/><path class="cls-1" d="M65.16,31.23a33.35,33.35,0,0,1,4.38,1.38A16.44,16.44,0,0,1,78.79,54.1C63.13,92.66,49.87,89.89,49.87,89.89S36.6,92.66,20.94,54.1a16.44,16.44,0,0,1,9.25-21.49,33.5,33.5,0,0,1,4-1.28"/><line class="cls-2" x1="49.87" y1="10.54" x2="49.87" y2="29.63"/><path class="cls-1" d="M50.22,28.38c.21-5,2.35-16.9,18-17.87a2,2,0,0,1,2.11,2.11c-.2,5-2.34,16.89-18,17.86A2,2,0,0,1,50.22,28.38Z"/><path class="cls-1" d="M67.39,22.72a19.38,19.38,0,0,1,2.85,1.47,2,2,0,0,1,.46,3c-2.7,3.24-9.47,9.16-19.58,3A2,2,0,0,1,50.24,28"/><line class="cls-2" x1="49.87" y1="50.22" x2="49.87" y2="52.23"/><line class="cls-2" x1="44.83" y1="40.67" x2="44.83" y2="42.68"/><line class="cls-2" x1="31.54" y1="46.14" x2="31.54" y2="48.15"/><line class="cls-2" x1="39.82" y1="57.75" x2="39.82" y2="59.76"/><line class="cls-2" x1="60.91" y1="54.75" x2="60.91" y2="56.76"/><line class="cls-2" x1="69.96" y1="49.72" x2="69.96" y2="51.72"/><line class="cls-2" x1="57.9" y1="77.84" x2="57.9" y2="79.85"/><line class="cls-2" x1="64.93" y1="38.67" x2="64.93" y2="40.67"/><line class="cls-2" x1="52.87" y1="66.29" x2="52.87" y2="68.3"/><line class="cls-2" x1="42.83" y1="74.83" x2="42.83" y2="76.84"/><path class="cls-1" d="M49.64,28.38c-.2-5-2.34-16.9-18-17.87a2,2,0,0,0-2.11,2.11c.2,5,2.34,16.89,18,17.86A2,2,0,0,0,49.64,28.38Z"/><path class="cls-1" d="M49.63,28a2,2,0,0,1-.88,2.14c-10.11,6.17-16.89.25-19.58-3a2,2,0,0,1,.46-3,20.41,20.41,0,0,1,2.85-1.47"/></g></svg>