<svg xmlns="http://www.w3.org/2000/svg" viewBox="0 0 100 100"><defs><style>.cls-1{fill:#dd563e;}.cls-2{fill:#fff;}</style></defs><title>icons</title><g id="Ebene_3" data-name="Ebene 3"><circle class="cls-1" cx="50" cy="50" r="50"/><path class="cls-2" d="M63.14,50a11.34,11.34,0,0,1,3.06,8.1,12.39,12.39,0,0,1-1.86,6.66,12.79,12.79,0,0,1-5.61,4.77,21.33,21.33,0,0,1-9.15,1.77A29.17,29.17,0,0,1,40.91,70a22.17,22.17,0,0,1-7.11-3.57l3.36-6.06a17,17,0,0,0,5.55,3,20.86,20.86,0,0,0,6.75,1.11A10.94,10.94,0,0,0,56,62.81a5.43,5.43,0,0,0,2.37-4.65,5.37,5.37,0,0,0-2.25-4.59q-2.25-1.65-6.87-1.65H45.38V46.58l9.54-11.34H35.84V28.7H64.46v5.22L54.26,46Q60.08,46.76,63.14,50Z"/></g></svg>