<svg xmlns="http://www.w3.org/2000/svg" viewBox="0 0 100 100"><defs><style>.cls-1,.cls-2{fill:none;stroke:#fff;stroke-miterlimit:10;stroke-width:2.5px;}.cls-2{stroke-linecap:round;}</style></defs><title>icon</title><g id="Ebene_2" data-name="Ebene 2"><circle class="cls-1" cx="50" cy="30" r="10"/><path class="cls-1" d="M58.18,35.75a41.69,41.69,0,0,1,8.48,4A54.38,54.38,0,0,1,77,47.64c3.8,3.8,6.16,7.7,6.83,11.29a8.23,8.23,0,0,1-2.08,7.71,8.12,8.12,0,0,1-7.09,2.18c-7.44-1-14.39-8.88-18.53-15.18-3.34-5.08-5.51-10-6-13.64"/><path class="cls-1" d="M49.89,40c-.48,3.59-2.65,8.56-6,13.64-4.14,6.3-11.09,14.19-18.53,15.18a8.12,8.12,0,0,1-7.09-2.18,8.23,8.23,0,0,1-2.08-7.71c.67-3.59,3-7.49,6.83-11.29,5.18-5.19,12.89-10,18.79-11.89"/><path class="cls-1" d="M49.18,43.06a5.63,5.63,0,0,1,1.64,0"/><path class="cls-1" d="M61.27,60.34c.11,1.19.17,2.41.17,3.66,0,11.6-5.12,21-11.44,21S38.56,75.6,38.56,64c0-1.25.06-2.47.17-3.66"/><line class="cls-1" x1="40" y1="75" x2="60" y2="75"/><line class="cls-1" x1="39" y1="65" x2="61" y2="65"/><line class="cls-1" x1="57.02" y1="55" x2="42.98" y2="55"/><path class="cls-2" d="M51,20s5-12.5,16-8"/><path class="cls-2" d="M49,20S44,7.5,33,12"/><line class="cls-2" x1="50" y1="85" x2="50" y2="89"/><path class="cls-2" d="M60.46,42.35s8.67,3.85,13.08,10.3"/><path class="cls-2" d="M39.54,42.35s-8.67,3.85-13.08,10.3"/></g></svg>