<svg xmlns="http://www.w3.org/2000/svg" viewBox="0 0 100 100"><defs><style>.cls-1{fill:#203f09;}.cls-2{fill:#fff;}</style></defs><title>icons</title><g id="Ebene_3" data-name="Ebene 3"><circle class="cls-1" cx="50" cy="50" r="50"/><path class="cls-2" d="M66.29,64.7v6.6h-31V66.08L52,50.24a18.33,18.33,0,0,0,3.81-4.71,9,9,0,0,0,1-4,5.39,5.39,0,0,0-2-4.5A9.26,9.26,0,0,0,49,35.48q-6.42,0-9.84,4.38l-5.46-4.2a16.17,16.17,0,0,1,6.63-5.13,23,23,0,0,1,9.33-1.83q6.84,0,10.92,3.24a10.66,10.66,0,0,1,4.08,8.82,14.65,14.65,0,0,1-1.44,6.42A25.06,25.06,0,0,1,57.71,54L46.49,64.7Z"/></g></svg>