<?xml version="1.0" encoding="utf-8"?>
<!-- Generator: Adobe Illustrator 24.0.0, SVG Export Plug-In . SVG Version: 6.00 Build 0)  -->
<svg version="1.1" id="Ebene_1" xmlns="http://www.w3.org/2000/svg" xmlns:xlink="http://www.w3.org/1999/xlink" x="0px" y="0px"
	 viewBox="0 0 384 385.4" style="enable-background:new 0 0 384 385.4;" xml:space="preserve">
<style type="text/css">
	.st0{fill:#B6C841;}
</style>
<title></title>
<g id="icomoon-ignore">
</g>
<path class="st0" d="M319.8,255.7c0-3.5-2-6-5.5-6.8c-22.8-5-40-20.8-49.5-41.8c-0.8-2-1.8-4-1.8-6.2c0-11.2,31.2-9,31.2-25
	c0-6.8-8.2-11-14.2-11c-5.8,0-10.2,4-15.8,4c-1,0-2-0.2-3-0.5c0.5-9.5,1.2-19,1.2-28.5c0-8.8-0.5-20.8-4.2-28.5
	c-12-26-35.2-41.2-63.8-41.2c-31.2,0-55,11.5-68.8,41.2c-3.8,7.8-4.2,19.8-4.2,28.5c0,9.5,0.8,19,1.2,28.5c-1,0.5-2.2,0.5-3.5,0.5
	c-5.8,0-10.2-3.8-15.5-3.8c-6.2,0-14,4-14,11c0,15.5,31.2,13.5,31.2,24.8c0,2.2-1,4.2-1.8,6.2c-9.8,21-26.5,36.8-49.5,41.8
	c-3.5,0.8-5.5,3.2-5.5,6.8c0,11.5,26.5,15.8,34.2,17c2.2,6,1.2,16.5,10.2,16.5c6.2,0,12.5-2.2,19.2-2.2c26.2,0,33.2,23.8,63.8,23.8
	c31.8,0,37.8-23.8,64.2-23.8c6.8,0,13,2,19.5,2c8.8,0,7.8-10.5,10-16.2C293.2,271.5,319.8,267.2,319.8,255.7z M384,192.7
	c0,106-86,192-192,192s-192-86-192-192s86-192,192-192S384,86.7,384,192.7z"/>
</svg>
