<svg xmlns="http://www.w3.org/2000/svg" width="664.929" height="473.795" viewBox="0 0 664.929 473.795">
  <g id="Layer_2" data-name="Layer 2" transform="translate(-0.03 -0.003)">
    <g id="Vector" transform="translate(0.03 0.003)">
      <path id="Pfad_338" data-name="Pfad 338" d="M447.369,83.084c46.257,43.764,86.7,85.2,132.3,144.111s96.209,135.3,72.219,180.9c-23.964,45.428-122.646,60.077-194.2,64.246-71.4,4.33-115.829-1.831-156.118-7.318-40.437-5.326-77.05-9.99-127.644-20.97C123.17,433.065,58.436,415.783,25.516,374.023c-32.766-41.76-33.948-108-3.495-152.263s92.347-66.784,143.6-108.891C216.713,70.768,257.156,8.694,303.252.875,349.51-6.95,401.273,39.313,447.369,83.084Z" transform="translate(-0.03 -0.003)" fill="#fdc233"/>
      <path id="Pfad_339" data-name="Pfad 339" d="M7.63,240.216c21.529,24.176,104.58,75.573,115.129,83.045s182.356,123.2,196.413,128.73c80.417-3.495,116.446-65.891,116.446-81.708s-85.788-128.447-123.07-132.675c-6.656-.752-84.349,23.129-84.349,23.129L56.753,115.668C36.033,98.726,7.63,76.42,7.63,76.42V240.248" transform="translate(-2.747 -27.325)" fill="#d37c59"/>
      <rect id="Rechteck_91" data-name="Rechteck 91" width="41.593" height="174.698" transform="translate(441.419 207.387) rotate(-30)" fill="#fed892"/>
      <circle id="Ellipse_15" data-name="Ellipse 15" cx="11.436" cy="11.436" r="11.436" transform="translate(524.416 317.869)" fill="#fd8369"/>
      <path id="Pfad_340" data-name="Pfad 340" d="M576.259,333.82c-4.279,2.531-29.232,15.014-37.552,13.974s-45.756-14.558-57.179-10.4S416,365.468,416,365.468,367.125,417.456,366.09,418.5s-.064,9.129,1.426,10.421,18.284,6.36,21.066,4.671,40.347-30.51,47.105-30.51,71.236,46.341,109.642,87.246c8.86-3.855,90.626-53.106,90.626-53.106Z" transform="translate(-130.757 -119.355)" fill="#de8e68"/>
      <path id="Pfad_341" data-name="Pfad 341" d="M290.481,524.654s-3.341,18.863,4.054,29.6,64.94,48.7,73.054,49.894,22.917-10.279,24.587-16.7S383.1,557.368,380,554.04s-47.5-34.4-52.284-35.123S297.882,520.118,290.481,524.654Z" transform="translate(-103.608 -185.481)" fill="#de8e68"/>
      <line id="Linie_1" data-name="Linie 1" y1="24.099" x2="31.795" transform="translate(192.488 346.876)" fill="none" stroke="#5b5b5b" stroke-linecap="round" stroke-linejoin="round" stroke-width="1.62"/>
      <line id="Linie_2" data-name="Linie 2" y1="24.099" x2="31.802" transform="translate(217.441 367.075)" fill="none" stroke="#5b5b5b" stroke-linecap="round" stroke-linejoin="round" stroke-width="1.62"/>
      <line id="Linie_3" data-name="Linie 3" y1="18.31" x2="24.169" transform="translate(241.784 388.565)" fill="none" stroke="#5b5b5b" stroke-linecap="round" stroke-linejoin="round" stroke-width="1.62"/>
      <line id="Linie_4" data-name="Linie 4" x1="90.465" y1="73.523" transform="translate(306.011 321.98)" fill="none" stroke="#5b5b5b" stroke-linecap="round" stroke-linejoin="round" stroke-width="1.62"/>
      <line id="Linie_5" data-name="Linie 5" x1="57.378" y1="46.63" transform="translate(305.452 367.595)" fill="none" stroke="#5b5b5b" stroke-linecap="round" stroke-linejoin="round" stroke-width="1.62"/>
      <line id="Linie_6" data-name="Linie 6" x1="47.214" y1="38.368" transform="translate(286.93 385.79)" fill="none" stroke="#5b5b5b" stroke-linecap="round" stroke-linejoin="round" stroke-width="1.62"/>
      <rect id="Rechteck_92" data-name="Rechteck 92" width="75.2" height="82.152" rx="23.74" transform="matrix(0.76, 0.65, -0.65, 0.76, 103.609, 192.783)" fill="#5b5b5b"/>
      <rect id="Rechteck_93" data-name="Rechteck 93" width="41.548" height="49.084" transform="matrix(0.76, 0.65, -0.65, 0.76, 148.973, 166.889)" fill="#74d5de"/>
      <circle id="Ellipse_16" data-name="Ellipse 16" cx="12.875" cy="12.875" r="12.875" transform="translate(132.617 407.736)" fill="none" stroke="#9574de" stroke-miterlimit="10" stroke-width="8.09"/>
      <circle id="Ellipse_17" data-name="Ellipse 17" cx="9.354" cy="9.354" r="9.354" transform="translate(464.558 392.099)" fill="none" stroke="#9574de" stroke-miterlimit="10" stroke-width="8.09"/>
      <circle id="Ellipse_18" data-name="Ellipse 18" cx="9.354" cy="9.354" r="9.354" transform="translate(400.845 174.632)" fill="none" stroke="#9574de" stroke-miterlimit="10" stroke-width="8.09"/>
      <rect id="Rechteck_94" data-name="Rechteck 94" width="161.373" height="64.053" transform="translate(208.061 67.726)" fill="#fed385"/>
      <path id="Pfad_342" data-name="Pfad 342" d="M506.947,226.97l12.367-26H494.58Z" transform="translate(-176.85 -71.856)" fill="#fed385"/>
      <line id="Linie_7" data-name="Linie 7" x2="117.538" transform="translate(229.976 84.032)" fill="none" stroke="#fd8369" stroke-linecap="round" stroke-linejoin="round" stroke-width="3.24"/>
      <line id="Linie_8" data-name="Linie 8" x2="117.538" transform="translate(229.976 99.753)" fill="none" stroke="#fd8369" stroke-linecap="round" stroke-linejoin="round" stroke-width="3.24"/>
      <line id="Linie_9" data-name="Linie 9" x2="117.538" transform="translate(229.976 115.468)" fill="none" stroke="#fd8369" stroke-linecap="round" stroke-linejoin="round" stroke-width="3.24"/>
      <path id="Pfad_343" data-name="Pfad 343" d="M930.656,115.61,919,122.632S785.126,203.614,743.16,227.925L813.021,348.92,930.656,286.5Z" transform="translate(-265.727 -41.337)" fill="#74d5de"/>
    </g>
  </g>
</svg>
